{
  "accessors": [
    {
      "bufferView": 2,
      "componentType": 5126,
      "count": 1155,
      "max": [
        0.3979724645614624,
        -0.15716305375099182,
        0.4446626901626587
      ],
      "min": [
        -0.39973706007003784,
        -0.7088232636451721,
        -0.23341761529445648
      ],
      "type": "VEC3"
    },
    {
      "bufferView": 2,
      "byteOffset": 13860,
      "componentType": 5126,
      "count": 1155,
      "max": [
        0.9984430074691772,
        0.9480563402175903,
        0.9999629259109497
      ],
      "min": [
        -0.999360203742981,
        -0.9961848258972168,
        -0.9994906783103943
      ],
      "type": "VEC3"
    },
    {
      "bufferView": 3,
      "componentType": 5126,
      "count": 1155,
      "max": [
        0.9997453689575195,
        0.999988853931427,
        0.9991210103034973,
        1.0
      ],
      "min": [
        -0.7402685284614563,
        -0.9999027848243713,
        -0.9975032806396484,
        -1.0
      ],
      "type": "VEC4"
    },
    {
      "bufferView": 1,
      "componentType": 5126,
      "count": 1155,
      "max": [
        0.5824686288833618,
        0.6347954273223877
      ],
      "min": [
        0.0,
        2.7550693630473688e-05
      ],
      "type": "VEC2"
    },
    {
      "bufferView": 1,
      "byteOffset": 9240,
      "componentType": 5126,
      "count": 1155,
      "max": [
        0.5715435743331909,
        0.2886529266834259
      ],
      "min": [
        0.3682571351528168,
        0.12588021159172058
      ],
      "type": "VEC2"
    },
    {
      "bufferView": 0,
      "componentType": 5125,
      "count": 5988,
      "type": "SCALAR"
    },
    {
      "bufferView": 2,
      "byteOffset": 27720,
      "componentType": 5126,
      "count": 225,
      "max": [
        0.10584302246570587,
        -0.45410263538360596,
        -0.06244155764579773
      ],
      "min": [
        -0.10584302246570587,
        -0.6347398161888123,
        -0.24611394107341766
      ],
      "type": "VEC3"
    },
    {
      "bufferView": 2,
      "byteOffset": 30420,
      "componentType": 5126,
      "count": 225,
      "max": [
        0.9823727011680603,
        0.8016517758369446,
        0.9562122225761414
      ],
      "min": [
        -0.9823727011680603,
        -0.999144434928894,
        -0.94867342710495
      ],
      "type": "VEC3"
    },
    {
      "bufferView": 3,
      "byteOffset": 18480,
      "componentType": 5126,
      "count": 225,
      "max": [
        0.9546645879745483,
        0.9711872339248657,
        0.7556171417236328,
        1.0
      ],
      "min": [
        -0.9965197443962097,
        -0.8886682391166687,
        -0.8617867827415466,
        -1.0
      ],
      "type": "VEC4"
    },
    {
      "bufferView": 1,
      "byteOffset": 18480,
      "componentType": 5126,
      "count": 225,
      "max": [
        0.9991283416748047,
        0.5564364194869995
      ],
      "min": [
        0.23319511115550995,
        0.028964031487703323
      ],
      "type": "VEC2"
    },
    {
      "bufferView": 0,
      "byteOffset": 23952,
      "componentType": 5125,
      "count": 1074,
      "type": "SCALAR"
    },
    {
      "bufferView": 2,
      "byteOffset": 33120,
      "componentType": 5126,
      "count": 666,
      "max": [
        0.21865065395832062,
        -0.42092597484588623,
        0.034645598381757736
      ],
      "min": [
        -0.2198476940393448,
        -0.6848948001861572,
        -0.2700745463371277
      ],
      "type": "VEC3"
    },
    {
      "bufferView": 2,
      "byteOffset": 41112,
      "componentType": 5126,
      "count": 666,
      "max": [
        0.9959101676940918,
        0.955132782459259,
        0.9952385425567627
      ],
      "min": [
        -0.995910108089447,
        -0.9997977614402771,
        -0.9930264353752136
      ],
      "type": "VEC3"
    },
    {
      "bufferView": 3,
      "byteOffset": 22080,
      "componentType": 5126,
      "count": 666,
      "max": [
        0.4276501536369324,
        0.8938437700271606,
        0.9914040565490723,
        1.0
      ],
      "min": [
        -1.0,
        -0.8948025703430176,
        -0.991360604763031,
        1.0
      ],
      "type": "VEC4"
    },
    {
      "bufferView": 1,
      "byteOffset": 20280,
      "componentType": 5126,
      "count": 666,
      "max": [
        0.65903639793396,
        0.8936259150505066
      ],
      "min": [
        0.13650445640087128,
        2.6492922188481316e-05
      ],
      "type": "VEC2"
    },
    {
      "bufferView": 0,
      "byteOffset": 28248,
      "componentType": 5125,
      "count": 3336,
      "type": "SCALAR"
    },
    {
      "bufferView": 2,
      "byteOffset": 49104,
      "componentType": 5126,
      "count": 1634,
      "max": [
        0.23394782841205597,
        -0.3521650433540344,
        0.4279693067073822
      ],
      "min": [
        -0.23394761979579926,
        -0.5340355634689331,
        0.3916497528553009
      ],
      "type": "VEC3"
    },
    {
      "bufferView": 2,
      "byteOffset": 68712,
      "componentType": 5126,
      "count": 1634,
      "max": [
        0.9999240636825562,
        0.9795230627059937,
        0.9998502731323242
      ],
      "min": [
        -0.9999116063117981,
        -0.9931819438934326,
        -0.9999651312828064
      ],
      "type": "VEC3"
    },
    {
      "bufferView": 3,
      "byteOffset": 32736,
      "componentType": 5126,
      "count": 1634,
      "max": [
        1.0,
        0.9997780323028564,
        0.9998876452445984,
        1.0
      ],
      "min": [
        -0.9774812459945679,
        -0.9998144507408142,
        -0.9998962879180908,
        1.0
      ],
      "type": "VEC4"
    },
    {
      "bufferView": 1,
      "byteOffset": 25608,
      "componentType": 5126,
      "count": 1634,
      "max": [
        0.9753181338310242,
        0.8889811635017395
      ],
      "min": [
        0.0,
        0.3137979805469513
      ],
      "type": "VEC2"
    },
    {
      "bufferView": 0,
      "byteOffset": 41592,
      "componentType": 5125,
      "count": 8064,
      "type": "SCALAR"
    },
    {
      "bufferView": 2,
      "byteOffset": 88320,
      "componentType": 5126,
      "count": 963,
      "max": [
        -0.39037397503852844,
        -0.09705623984336853,
        0.30775243043899536
      ],
      "min": [
        -0.7176645994186401,
        -0.37222975492477417,
        -0.12844546139240265
      ],
      "type": "VEC3"
    },
    {
      "bufferView": 2,
      "byteOffset": 99876,
      "componentType": 5126,
      "count": 963,
      "max": [
        0.9926580190658569,
        0.9051440358161926,
        0.9698353409767151
      ],
      "min": [
        -0.9922364354133606,
        -0.8973966240882874,
        -0.9669647216796875
      ],
      "type": "VEC3"
    },
    {
      "bufferView": 3,
      "byteOffset": 58880,
      "componentType": 5126,
      "count": 963,
      "max": [
        0.9164693355560303,
        0.9201578497886658,
        0.9920835494995117,
        1.0
      ],
      "min": [
        -0.9039759635925293,
        -0.9950975775718689,
        -0.9902653098106384,
        1.0
      ],
      "type": "VEC4"
    },
    {
      "bufferView": 1,
      "byteOffset": 38680,
      "componentType": 5126,
      "count": 963,
      "max": [
        0.9975383281707764,
        0.9690749645233154
      ],
      "min": [
        0.011375371366739273,
        0.27654460072517395
      ],
      "type": "VEC2"
    },
    {
      "bufferView": 0,
      "byteOffset": 73848,
      "componentType": 5125,
      "count": 3114,
      "type": "SCALAR"
    },
    {
      "bufferView": 2,
      "byteOffset": 111432,
      "componentType": 5126,
      "count": 5642,
      "max": [
        0.7046721577644348,
        0.04691501706838608,
        0.5539891719818115
      ],
      "min": [
        -0.839953601360321,
        -0.49714434146881104,
        -0.24664226174354553
      ],
      "type": "VEC3"
    },
    {
      "bufferView": 2,
      "byteOffset": 179136,
      "componentType": 5126,
      "count": 5642,
      "max": [
        0.9999960660934448,
        0.9999159574508667,
        0.9984647631645203
      ],
      "min": [
        -0.9999663233757019,
        -0.9992148876190186,
        -0.9990955591201782
      ],
      "type": "VEC3"
    },
    {
      "bufferView": 3,
      "byteOffset": 74288,
      "componentType": 5126,
      "count": 5642,
      "max": [
        0.9999465942382813,
        0.9999787211418152,
        0.9995407462120056,
        1.0
      ],
      "min": [
        -0.9999802112579346,
        -0.9997714161872864,
        -0.9999648928642273,
        1.0
      ],
      "type": "VEC4"
    },
    {
      "bufferView": 1,
      "byteOffset": 46384,
      "componentType": 5126,
      "count": 5642,
      "max": [
        0.9945507645606995,
        0.7148744463920593
      ],
      "min": [
        0.022642940282821655,
        0.0
      ],
      "type": "VEC2"
    },
    {
      "bufferView": 0,
      "byteOffset": 86304,
      "componentType": 5125,
      "count": 30276,
      "type": "SCALAR"
    },
    {
      "bufferView": 2,
      "byteOffset": 246840,
      "componentType": 5126,
      "count": 593,
      "max": [
        -0.5744577050209045,
        0.03210703656077385,
        0.18416278064250946
      ],
      "min": [
        -0.8033469915390015,
        -0.3424197733402252,
        -0.11246578395366669
      ],
      "type": "VEC3"
    },
    {
      "bufferView": 2,
      "byteOffset": 253956,
      "componentType": 5126,
      "count": 593,
      "max": [
        0.9941108822822571,
        0.9600545763969421,
        0.9989850521087646
      ],
      "min": [
        -0.9990186095237732,
        -0.9905644655227661,
        -0.9979014992713928
      ],
      "type": "VEC3"
    },
    {
      "bufferView": 3,
      "byteOffset": 164560,
      "componentType": 5126,
      "count": 593,
      "max": [
        0.9893654584884644,
        0.9980370998382568,
        0.9523173570632935,
        1.0
      ],
      "min": [
        -0.9792013764381409,
        -0.9991241693496704,
        -0.9952898025512695,
        1.0
      ],
      "type": "VEC4"
    },
    {
      "bufferView": 1,
      "byteOffset": 91520,
      "componentType": 5126,
      "count": 593,
      "max": [
        0.9668827652931213,
        0.20521539449691772
      ],
      "min": [
        0.4720779359340668,
        2.740780655585695e-05
      ],
      "type": "VEC2"
    },
    {
      "bufferView": 0,
      "byteOffset": 207408,
      "componentType": 5125,
      "count": 3279,
      "type": "SCALAR"
    },
    {
      "bufferView": 2,
      "byteOffset": 261072,
      "componentType": 5126,
      "count": 6740,
      "max": [
        0.5342534184455872,
        0.576774001121521,
        0.6088380813598633
      ],
      "min": [
        -0.5342534184455872,
        -0.41399285197257996,
        -0.8047283291816711
      ],
      "type": "VEC3"
    },
    {
      "bufferView": 2,
      "byteOffset": 341952,
      "componentType": 5126,
      "count": 6740,
      "max": [
        0.9999685883522034,
        0.9999071955680847,
        0.9998940825462341
      ],
      "min": [
        -0.9999746680259705,
        -0.9987671971321106,
        -0.9996798634529114
      ],
      "type": "VEC3"
    },
    {
      "bufferView": 3,
      "byteOffset": 174048,
      "componentType": 5126,
      "count": 6740,
      "max": [
        0.9998559951782227,
        0.9992087483406067,
        0.9999901056289673,
        1.0
      ],
      "min": [
        -0.999969482421875,
        -0.9996041655540466,
        -0.9997662305831909,
        -1.0
      ],
      "type": "VEC4"
    },
    {
      "bufferView": 1,
      "byteOffset": 96264,
      "componentType": 5126,
      "count": 6740,
      "max": [
        0.986951470375061,
        0.8177072405815125
      ],
      "min": [
        0.0,
        5.665972790773466e-17
      ],
      "type": "VEC2"
    },
    {
      "bufferView": 0,
      "byteOffset": 220524,
      "componentType": 5125,
      "count": 34107,
      "type": "SCALAR"
    },
    {
      "bufferView": 2,
      "byteOffset": 422832,
      "componentType": 5126,
      "count": 158,
      "max": [
        0.12937107682228088,
        0.29162222146987915,
        0.5986906886100769
      ],
      "min": [
        -0.12937107682228088,
        0.2642807960510254,
        0.5723205804824829
      ],
      "type": "VEC3"
    },
    {
      "bufferView": 2,
      "byteOffset": 424728,
      "componentType": 5126,
      "count": 158,
      "max": [
        0.9767135977745056,
        0.9998610019683838,
        0.9971668720245361
      ],
      "min": [
        -0.9767135977745056,
        -0.9663132429122925,
        -0.8936774134635925
      ],
      "type": "VEC3"
    },
    {
      "bufferView": 3,
      "byteOffset": 281888,
      "componentType": 5126,
      "count": 158,
      "max": [
        0.9994146227836609,
        0.6152434945106506,
        0.9999558329582214,
        1.0
      ],
      "min": [
        -0.8596019744873047,
        -0.668925940990448,
        -0.998437762260437,
        1.0
      ],
      "type": "VEC4"
    },
    {
      "bufferView": 1,
      "byteOffset": 150184,
      "componentType": 5126,
      "count": 158,
      "max": [
        0.7314154505729675,
        0.01488772127777338
      ],
      "min": [
        0.15925520658493042,
        2.236997170257382e-05
      ],
      "type": "VEC2"
    },
    {
      "bufferView": 0,
      "byteOffset": 356952,
      "componentType": 5125,
      "count": 840,
      "type": "SCALAR"
    },
    {
      "bufferView": 2,
      "byteOffset": 426624,
      "componentType": 5126,
      "count": 2141,
      "max": [
        0.20582003891468048,
        0.2529839873313904,
        0.6776138544082642
      ],
      "min": [
        -0.1957063525915146,
        0.009522640146315098,
        0.4510243237018585
      ],
      "type": "VEC3"
    },
    {
      "bufferView": 2,
      "byteOffset": 452316,
      "componentType": 5126,
      "count": 2141,
      "max": [
        0.9975270628929138,
        0.9999368786811829,
        0.9999778866767883
      ],
      "min": [
        -0.9991231560707092,
        -0.9935782551765442,
        -0.9971923232078552
      ],
      "type": "VEC3"
    },
    {
      "bufferView": 3,
      "byteOffset": 284416,
      "componentType": 5126,
      "count": 2141,
      "max": [
        0.9983054995536804,
        0.999687671661377,
        0.9965249300003052,
        1.0
      ],
      "min": [
        -0.9995556473731995,
        -0.9902005195617676,
        -0.9995298981666565,
        -1.0
      ],
      "type": "VEC4"
    },
    {
      "bufferView": 1,
      "byteOffset": 151448,
      "componentType": 5126,
      "count": 2141,
      "max": [
        0.9256106615066528,
        0.6262929439544678
      ],
      "min": [
        0.30832499265670776,
        0.002375580370426178
      ],
      "type": "VEC2"
    },
    {
      "bufferView": 0,
      "byteOffset": 360312,
      "componentType": 5125,
      "count": 10827,
      "type": "SCALAR"
    },
    {
      "bufferView": 2,
      "byteOffset": 478008,
      "componentType": 5126,
      "count": 2552,
      "max": [
        0.7413068413734436,
        0.3715338706970215,
        0.6802729368209839
      ],
      "min": [
        -0.7401096820831299,
        -0.545526921749115,
        -0.16245317459106445
      ],
      "type": "VEC3"
    },
    {
      "bufferView": 2,
      "byteOffset": 508632,
      "componentType": 5126,
      "count": 2552,
      "max": [
        0.9953462481498718,
        0.9996351599693298,
        0.9999341368675232
      ],
      "min": [
        -0.9953474402427673,
        -0.9986339807510376,
        -0.9971526265144348
      ],
      "type": "VEC3"
    },
    {
      "bufferView": 3,
      "byteOffset": 318672,
      "componentType": 5126,
      "count": 2552,
      "max": [
        0.9975364804267883,
        0.9999856948852539,
        0.999700665473938,
        1.0
      ],
      "min": [
        -0.997896134853363,
        -0.9998155832290649,
        -0.9998471140861511,
        1.0
      ],
      "type": "VEC4"
    },
    {
      "bufferView": 1,
      "byteOffset": 168576,
      "componentType": 5126,
      "count": 2552,
      "max": [
        0.9998645186424255,
        1.0
      ],
      "min": [
        0.0,
        2.532217331463471e-05
      ],
      "type": "VEC2"
    },
    {
      "bufferView": 0,
      "byteOffset": 403620,
      "componentType": 5125,
      "count": 13332,
      "type": "SCALAR"
    },
    {
      "bufferView": 2,
      "byteOffset": 539256,
      "componentType": 5126,
      "count": 4382,
      "max": [
        0.5251843929290771,
        0.546574592590332,
        0.5525346398353577
      ],
      "min": [
        -0.5251843929290771,
        -0.3924711346626282,
        -0.8230578899383545
      ],
      "type": "VEC3"
    },
    {
      "bufferView": 2,
      "byteOffset": 591840,
      "componentType": 5126,
      "count": 4382,
      "max": [
        0.9999375939369202,
        0.9958046078681946,
        0.9414299726486206
      ],
      "min": [
        -0.9999986290931702,
        -0.9967105984687805,
        -0.9997848868370056
      ],
      "type": "VEC3"
    },
    {
      "bufferView": 3,
      "byteOffset": 359504,
      "componentType": 5126,
      "count": 4382,
      "max": [
        0.9937112927436829,
        0.9994510412216187,
        0.9998248815536499,
        1.0
      ],
      "min": [
        -0.9996033310890198,
        -0.9872088432312012,
        -0.9988633394241333,
        -1.0
      ],
      "type": "VEC4"
    },
    {
      "bufferView": 1,
      "byteOffset": 188992,
      "componentType": 5126,
      "count": 4382,
      "max": [
        0.9751425981521606,
        0.9178971648216248
      ],
      "min": [
        0.10237834602594376,
        1.3890043192077428e-05
      ],
      "type": "VEC2"
    },
    {
      "bufferView": 1,
      "byteOffset": 224048,
      "componentType": 5126,
      "count": 4382,
      "max": [
        0.444955974817276,
        0.5115845203399658
      ],
      "min": [
        0.0,
        0.0
      ],
      "type": "VEC2"
    },
    {
      "bufferView": 0,
      "byteOffset": 456948,
      "componentType": 5125,
      "count": 21045,
      "type": "SCALAR"
    },
    {
      "bufferView": 2,
      "byteOffset": 644424,
      "componentType": 5126,
      "count": 1207,
      "max": [
        0.3317357301712036,
        -0.1538962870836258,
        0.33756744861602783
      ],
      "min": [
        -0.3317357301712036,
        -0.7851449847221375,
        -0.8350479602813721
      ],
      "type": "VEC3"
    },
    {
      "bufferView": 2,
      "byteOffset": 658908,
      "componentType": 5126,
      "count": 1207,
      "max": [
        0.9973785877227783,
        0.9999767541885376,
        0.965608537197113
      ],
      "min": [
        -0.9973785877227783,
        -0.999550998210907,
        -0.997229278087616
      ],
      "type": "VEC3"
    },
    {
      "bufferView": 3,
      "byteOffset": 429616,
      "componentType": 5126,
      "count": 1207,
      "max": [
        0.9999822378158569,
        0.9960069060325623,
        0.9980326294898987,
        1.0
      ],
      "min": [
        -0.9999641180038452,
        -0.9993823766708374,
        -0.9949052929878235,
        -1.0
      ],
      "type": "VEC4"
    },
    {
      "bufferView": 1,
      "byteOffset": 259104,
      "componentType": 5126,
      "count": 1207,
      "max": [
        0.9902190566062927,
        0.9790882468223572
      ],
      "min": [
        0.0035581588745117188,
        0.0
      ],
      "type": "VEC2"
    },
    {
      "bufferView": 0,
      "byteOffset": 541128,
      "componentType": 5125,
      "count": 6186,
      "type": "SCALAR"
    },
    {
      "bufferView": 2,
      "byteOffset": 673392,
      "componentType": 5126,
      "count": 230,
      "max": [
        0.3466733992099762,
        0.22697407007217407,
        -0.11198314279317856
      ],
      "min": [
        0.19496527314186096,
        0.0526442714035511,
        -1.3264273405075073
      ],
      "type": "VEC3"
    },
    {
      "bufferView": 2,
      "byteOffset": 676152,
      "componentType": 5126,
      "count": 230,
      "max": [
        0.9924872517585754,
        0.9972833395004272,
        0.9881597757339478
      ],
      "min": [
        -0.9947906136512756,
        -0.9917352199554443,
        -0.9881412982940674
      ],
      "type": "VEC3"
    },
    {
      "bufferView": 3,
      "byteOffset": 448928,
      "componentType": 5126,
      "count": 230,
      "max": [
        0.9973476529121399,
        0.9881729483604431,
        0.9989676475524902,
        1.0
      ],
      "min": [
        -0.9987943768501282,
        -0.9925597906112671,
        -0.9876732230186462,
        -1.0
      ],
      "type": "VEC4"
    },
    {
      "bufferView": 1,
      "byteOffset": 268760,
      "componentType": 5126,
      "count": 230,
      "max": [
        0.8092575073242188,
        0.48980847001075745
      ],
      "min": [
        0.3861979842185974,
        0.002433168701827526
      ],
      "type": "VEC2"
    },
    {
      "bufferView": 1,
      "byteOffset": 270600,
      "componentType": 5126,
      "count": 230,
      "max": [
        0.7487165927886963,
        0.1536533385515213
      ],
      "min": [
        0.3819713592529297,
        0.0019920319318771362
      ],
      "type": "VEC2"
    },
    {
      "bufferView": 0,
      "byteOffset": 565872,
      "componentType": 5125,
      "count": 789,
      "type": "SCALAR"
    },
    {
      "bufferView": 2,
      "byteOffset": 678912,
      "componentType": 5126,
      "count": 38,
      "max": [
        0.2742803990840912,
        0.14485199749469757,
        0.003107687458395958
      ],
      "min": [
        0.15986338257789612,
        0.007745060138404369,
        -0.16188457608222961
      ],
      "type": "VEC3"
    },
    {
      "bufferView": 2,
      "byteOffset": 679368,
      "componentType": 5126,
      "count": 38,
      "max": [
        0.8938543796539307,
        0.8698806762695313,
        0.49268776178359985
      ],
      "min": [
        -0.9446335434913635,
        -0.960433840751648,
        -0.9884800314903259
      ],
      "type": "VEC3"
    },
    {
      "bufferView": 3,
      "byteOffset": 452608,
      "componentType": 5126,
      "count": 38,
      "max": [
        0.9954292178153992,
        0.7675292491912842,
        0.3168557286262512,
        1.0
      ],
      "min": [
        -0.6062585115432739,
        -0.7182918190956116,
        -0.9857309460639954,
        1.0
      ],
      "type": "VEC4"
    },
    {
      "bufferView": 1,
      "byteOffset": 272440,
      "componentType": 5126,
      "count": 38,
      "max": [
        0.6778049468994141,
        0.47712773084640503
      ],
      "min": [
        0.574859619140625,
        0.22050881385803223
      ],
      "type": "VEC2"
    },
    {
      "bufferView": 0,
      "byteOffset": 569028,
      "componentType": 5125,
      "count": 42,
      "type": "SCALAR"
    },
    {
      "bufferView": 2,
      "byteOffset": 679824,
      "componentType": 5126,
      "count": 465,
      "max": [
        0.974604070186615,
        -0.21071627736091614,
        1.2332419157028198
      ],
      "min": [
        -0.9710631370544434,
        -0.9767149090766907,
        -0.9010902643203735
      ],
      "type": "VEC3"
    },
    {
      "bufferView": 2,
      "byteOffset": 685404,
      "componentType": 5126,
      "count": 465,
      "max": [
        1.0,
        1.0,
        0.9573359489440918
      ],
      "min": [
        -1.0,
        -1.0,
        -0.44578948616981506
      ],
      "type": "VEC3"
    },
    {
      "bufferView": 3,
      "byteOffset": 453216,
      "componentType": 5126,
      "count": 465,
      "max": [
        1.0,
        0.9573360085487366,
        1.0,
        1.0
      ],
      "min": [
        -0.7098727226257324,
        -0.6735097169876099,
        -1.0,
        1.0
      ],
      "type": "VEC4"
    },
    {
      "bufferView": 1,
      "byteOffset": 272744,
      "componentType": 5126,
      "count": 465,
      "max": [
        0.9824953079223633,
        0.9819021224975586
      ],
      "min": [
        0.36828237771987915,
        0.016110599040985107
      ],
      "type": "VEC2"
    },
    {
      "bufferView": 1,
      "byteOffset": 276464,
      "componentType": 5126,
      "count": 465,
      "max": [
        1.0,
        1.0
      ],
      "min": [
        0.0,
        0.0
      ],
      "type": "VEC2"
    },
    {
      "bufferView": 0,
      "byteOffset": 569196,
      "componentType": 5125,
      "count": 1224,
      "type": "SCALAR"
    },
    {
      "bufferView": 2,
      "byteOffset": 690984,
      "componentType": 5126,
      "count": 230,
      "max": [
        0.3466733992099762,
        0.22697407007217407,
        -0.11198314279317856
      ],
      "min": [
        0.19496527314186096,
        0.0526442714035511,
        -1.3264273405075073
      ],
      "type": "VEC3"
    },
    {
      "bufferView": 2,
      "byteOffset": 693744,
      "componentType": 5126,
      "count": 230,
      "max": [
        0.9924872517585754,
        0.9972833395004272,
        0.9881597757339478
      ],
      "min": [
        -0.9947906136512756,
        -0.9917352199554443,
        -0.9881412982940674
      ],
      "type": "VEC3"
    },
    {
      "bufferView": 3,
      "byteOffset": 460656,
      "componentType": 5126,
      "count": 230,
      "max": [
        0.9973476529121399,
        0.9881729483604431,
        0.9989676475524902,
        1.0
      ],
      "min": [
        -0.9987943768501282,
        -0.9925597906112671,
        -0.9876732230186462,
        -1.0
      ],
      "type": "VEC4"
    },
    {
      "bufferView": 1,
      "byteOffset": 280184,
      "componentType": 5126,
      "count": 230,
      "max": [
        0.8092575073242188,
        0.48980847001075745
      ],
      "min": [
        0.3861979842185974,
        0.002433168701827526
      ],
      "type": "VEC2"
    },
    {
      "bufferView": 1,
      "byteOffset": 282024,
      "componentType": 5126,
      "count": 230,
      "max": [
        0.7487165927886963,
        0.1536533385515213
      ],
      "min": [
        0.3819713592529297,
        0.0019920319318771362
      ],
      "type": "VEC2"
    },
    {
      "bufferView": 0,
      "byteOffset": 574092,
      "componentType": 5125,
      "count": 789,
      "type": "SCALAR"
    },
    {
      "bufferView": 2,
      "byteOffset": 696504,
      "componentType": 5126,
      "count": 38,
      "max": [
        0.2742803990840912,
        0.14485199749469757,
        0.003107687458395958
      ],
      "min": [
        0.15986338257789612,
        0.007745060138404369,
        -0.16188457608222961
      ],
      "type": "VEC3"
    },
    {
      "bufferView": 2,
      "byteOffset": 696960,
      "componentType": 5126,
      "count": 38,
      "max": [
        0.8938543796539307,
        0.8698806762695313,
        0.49268776178359985
      ],
      "min": [
        -0.9446335434913635,
        -0.960433840751648,
        -0.9884800314903259
      ],
      "type": "VEC3"
    },
    {
      "bufferView": 3,
      "byteOffset": 464336,
      "componentType": 5126,
      "count": 38,
      "max": [
        0.9954292178153992,
        0.7675292491912842,
        0.3168557286262512,
        1.0
      ],
      "min": [
        -0.6062585115432739,
        -0.7182918190956116,
        -0.9857309460639954,
        1.0
      ],
      "type": "VEC4"
    },
    {
      "bufferView": 1,
      "byteOffset": 283864,
      "componentType": 5126,
      "count": 38,
      "max": [
        0.6778049468994141,
        0.47712773084640503
      ],
      "min": [
        0.574859619140625,
        0.22050881385803223
      ],
      "type": "VEC2"
    },
    {
      "bufferView": 0,
      "byteOffset": 577248,
      "componentType": 5125,
      "count": 42,
      "type": "SCALAR"
    },
    {
      "bufferView": 2,
      "byteOffset": 697416,
      "componentType": 5126,
      "count": 230,
      "max": [
        0.3466733992099762,
        0.22697407007217407,
        -0.11198314279317856
      ],
      "min": [
        0.19496527314186096,
        0.0526442714035511,
        -1.3264273405075073
      ],
      "type": "VEC3"
    },
    {
      "bufferView": 2,
      "byteOffset": 700176,
      "componentType": 5126,
      "count": 230,
      "max": [
        0.9924872517585754,
        0.9972833395004272,
        0.9881597757339478
      ],
      "min": [
        -0.9947906136512756,
        -0.9917352199554443,
        -0.9881412982940674
      ],
      "type": "VEC3"
    },
    {
      "bufferView": 3,
      "byteOffset": 464944,
      "componentType": 5126,
      "count": 230,
      "max": [
        0.9973476529121399,
        0.9881729483604431,
        0.9989676475524902,
        1.0
      ],
      "min": [
        -0.9987943768501282,
        -0.9925597906112671,
        -0.9876732230186462,
        -1.0
      ],
      "type": "VEC4"
    },
    {
      "bufferView": 1,
      "byteOffset": 284168,
      "componentType": 5126,
      "count": 230,
      "max": [
        0.8092575073242188,
        0.48980847001075745
      ],
      "min": [
        0.3861979842185974,
        0.002433168701827526
      ],
      "type": "VEC2"
    },
    {
      "bufferView": 1,
      "byteOffset": 286008,
      "componentType": 5126,
      "count": 230,
      "max": [
        0.7487165927886963,
        0.1536533385515213
      ],
      "min": [
        0.3819713592529297,
        0.0019920319318771362
      ],
      "type": "VEC2"
    },
    {
      "bufferView": 0,
      "byteOffset": 577416,
      "componentType": 5125,
      "count": 789,
      "type": "SCALAR"
    },
    {
      "bufferView": 2,
      "byteOffset": 702936,
      "componentType": 5126,
      "count": 38,
      "max": [
        0.2742803990840912,
        0.14485199749469757,
        0.003107687458395958
      ],
      "min": [
        0.15986338257789612,
        0.007745060138404369,
        -0.16188457608222961
      ],
      "type": "VEC3"
    },
    {
      "bufferView": 2,
      "byteOffset": 703392,
      "componentType": 5126,
      "count": 38,
      "max": [
        0.8938543796539307,
        0.8698806762695313,
        0.49268776178359985
      ],
      "min": [
        -0.9446335434913635,
        -0.960433840751648,
        -0.9884800314903259
      ],
      "type": "VEC3"
    },
    {
      "bufferView": 3,
      "byteOffset": 468624,
      "componentType": 5126,
      "count": 38,
      "max": [
        0.9954292178153992,
        0.7675292491912842,
        0.3168557286262512,
        1.0
      ],
      "min": [
        -0.6062585115432739,
        -0.7182918190956116,
        -0.9857309460639954,
        1.0
      ],
      "type": "VEC4"
    },
    {
      "bufferView": 1,
      "byteOffset": 287848,
      "componentType": 5126,
      "count": 38,
      "max": [
        0.6778049468994141,
        0.47712773084640503
      ],
      "min": [
        0.574859619140625,
        0.22050881385803223
      ],
      "type": "VEC2"
    },
    {
      "bufferView": 0,
      "byteOffset": 580572,
      "componentType": 5125,
      "count": 42,
      "type": "SCALAR"
    },
    {
      "bufferView": 2,
      "byteOffset": 703848,
      "componentType": 5126,
      "count": 1014,
      "max": [
        0.9063562750816345,
        3.712203025817871,
        1.2700093984603882
      ],
      "min": [
        -0.9063562750816345,
        -2.3572378158569336,
        -2.0134849548339844
      ],
      "type": "VEC3"
    },
    {
      "bufferView": 2,
      "byteOffset": 716016,
      "componentType": 5126,
      "count": 1014,
      "max": [
        1.0,
        0.9997024536132813,
        0.999943196773529
      ],
      "min": [
        -1.0,
        -0.9986394047737122,
        -0.999870777130127
      ],
      "type": "VEC3"
    },
    {
      "bufferView": 3,
      "byteOffset": 469232,
      "componentType": 5126,
      "count": 1014,
      "max": [
        0.9969209432601929,
        0.9997653365135193,
        0.9999806880950928,
        1.0
      ],
      "min": [
        -0.9999902844429016,
        -0.9647993445396423,
        -0.9817153811454773,
        -1.0
      ],
      "type": "VEC4"
    },
    {
      "bufferView": 1,
      "byteOffset": 288152,
      "componentType": 5126,
      "count": 1014,
      "max": [
        0.9705902934074402,
        0.9974358677864075
      ],
      "min": [
        0.3951475918292999,
        0.5056960582733154
      ],
      "type": "VEC2"
    },
    {
      "bufferView": 0,
      "byteOffset": 580740,
      "componentType": 5125,
      "count": 5418,
      "type": "SCALAR"
    },
    {
      "bufferView": 2,
      "byteOffset": 728184,
      "componentType": 5126,
      "count": 84,
      "max": [
        1.0,
        1.0,
        1.000000238418579
      ],
      "min": [
        -1.000000238418579,
        -1.0,
        -1.0000003576278687
      ],
      "type": "VEC3"
    },
    {
      "bufferView": 2,
      "byteOffset": 729192,
      "componentType": 5126,
      "count": 84,
      "max": [
        1.0,
        1.0,
        1.0
      ],
      "min": [
        -1.0,
        -1.0,
        -1.0
      ],
      "type": "VEC3"
    },
    {
      "bufferView": 3,
      "byteOffset": 485456,
      "componentType": 5126,
      "count": 84,
      "max": [
        1.0,
        1.0,
        3.053819091292098e-05,
        1.0
      ],
      "min": [
        -3.097473017987795e-05,
        0.0,
        -3.07551454170607e-05,
        1.0
      ],
      "type": "VEC4"
    },
    {
      "bufferView": 1,
      "byteOffset": 296264,
      "componentType": 5126,
      "count": 84,
      "max": [
        0.43783876299858093,
        0.9561800360679626
      ],
      "min": [
        0.020472420379519463,
        0.41229936480522156
      ],
      "type": "VEC2"
    },
    {
      "bufferView": 0,
      "byteOffset": 602412,
      "componentType": 5125,
      "count": 240,
      "type": "SCALAR"
    },
    {
      "bufferView": 2,
      "byteOffset": 730200,
      "componentType": 5126,
      "count": 667,
      "max": [
        0.3502350449562073,
        0.23124513030052185,
        0.4827183783054352
      ],
      "min": [
        0.271001398563385,
        0.08753454685211182,
        0.42424672842025757
      ],
      "type": "VEC3"
    },
    {
      "bufferView": 2,
      "byteOffset": 738204,
      "componentType": 5126,
      "count": 667,
      "max": [
        0.9949485063552856,
        0.9953150749206543,
        0.9957506656646729
      ],
      "min": [
        -0.995910108089447,
        -0.9955627918243408,
        -0.995751142501831
      ],
      "type": "VEC3"
    },
    {
      "bufferView": 3,
      "byteOffset": 486800,
      "componentType": 5126,
      "count": 667,
      "max": [
        0.9949989914894104,
        0.9993566274642944,
        0.9959622025489807,
        1.0
      ],
      "min": [
        -0.9962976574897766,
        -0.9966337084770203,
        -0.9964368939399719,
        -1.0
      ],
      "type": "VEC4"
    },
    {
      "bufferView": 1,
      "byteOffset": 296936,
      "componentType": 5126,
      "count": 667,
      "max": [
        0.8052161931991577,
        0.5860897898674011
      ],
      "min": [
        0.5419842004776001,
        0.008028924465179443
      ],
      "type": "VEC2"
    },
    {
      "bufferView": 0,
      "byteOffset": 603372,
      "componentType": 5125,
      "count": 3498,
      "type": "SCALAR"
    },
    {
      "bufferView": 2,
      "byteOffset": 746208,
      "componentType": 5126,
      "count": 429,
      "max": [
        0.3742048144340515,
        0.18142592906951904,
        0.43430161476135254
      ],
      "min": [
        0.30739957094192505,
        0.13824233412742615,
        0.3591778874397278
      ],
      "type": "VEC3"
    },
    {
      "bufferView": 2,
      "byteOffset": 751356,
      "componentType": 5126,
      "count": 429,
      "max": [
        0.9949485063552856,
        0.9953150749206543,
        0.9957506656646729
      ],
      "min": [
        -0.995910108089447,
        -0.9955627918243408,
        -0.995751142501831
      ],
      "type": "VEC3"
    },
    {
      "bufferView": 3,
      "byteOffset": 497472,
      "componentType": 5126,
      "count": 429,
      "max": [
        0.9660230875015259,
        0.9968452453613281,
        0.9993185997009277,
        1.0
      ],
      "min": [
        -0.9607687592506409,
        -0.9966539144515991,
        -0.999281108379364,
        -1.0
      ],
      "type": "VEC4"
    },
    {
      "bufferView": 1,
      "byteOffset": 302272,
      "componentType": 5126,
      "count": 429,
      "max": [
        0.8052161931991577,
        0.3814485967159271
      ],
      "min": [
        0.5419842004776001,
        0.008028924465179443
      ],
      "type": "VEC2"
    },
    {
      "bufferView": 0,
      "byteOffset": 617364,
      "componentType": 5125,
      "count": 2160,
      "type": "SCALAR"
    },
    {
      "bufferView": 2,
      "byteOffset": 756504,
      "componentType": 5126,
      "count": 1014,
      "max": [
        0.9063562750816345,
        3.712203025817871,
        1.2700093984603882
      ],
      "min": [
        -0.9063562750816345,
        -2.3572378158569336,
        -2.0134849548339844
      ],
      "type": "VEC3"
    },
    {
      "bufferView": 2,
      "byteOffset": 768672,
      "componentType": 5126,
      "count": 1014,
      "max": [
        1.0,
        0.9997024536132813,
        0.999943196773529
      ],
      "min": [
        -1.0,
        -0.9986394047737122,
        -0.999870777130127
      ],
      "type": "VEC3"
    },
    {
      "bufferView": 3,
      "byteOffset": 504336,
      "componentType": 5126,
      "count": 1014,
      "max": [
        0.9969209432601929,
        0.9997653365135193,
        0.9999806880950928,
        1.0
      ],
      "min": [
        -0.9999902844429016,
        -0.9647993445396423,
        -0.9817153811454773,
        -1.0
      ],
      "type": "VEC4"
    },
    {
      "bufferView": 1,
      "byteOffset": 305704,
      "componentType": 5126,
      "count": 1014,
      "max": [
        0.9705902934074402,
        0.9974358677864075
      ],
      "min": [
        0.3951475918292999,
        0.5056960582733154
      ],
      "type": "VEC2"
    },
    {
      "bufferView": 0,
      "byteOffset": 626004,
      "componentType": 5125,
      "count": 5418,
      "type": "SCALAR"
    },
    {
      "bufferView": 2,
      "byteOffset": 780840,
      "componentType": 5126,
      "count": 667,
      "max": [
        0.3502350449562073,
        0.23124513030052185,
        0.4827183783054352
      ],
      "min": [
        0.271001398563385,
        0.08753454685211182,
        0.42424672842025757
      ],
      "type": "VEC3"
    },
    {
      "bufferView": 2,
      "byteOffset": 788844,
      "componentType": 5126,
      "count": 667,
      "max": [
        0.9949485063552856,
        0.9953150749206543,
        0.9957506656646729
      ],
      "min": [
        -0.995910108089447,
        -0.9955627918243408,
        -0.995751142501831
      ],
      "type": "VEC3"
    },
    {
      "bufferView": 3,
      "byteOffset": 520560,
      "componentType": 5126,
      "count": 667,
      "max": [
        0.9949989914894104,
        0.9993566274642944,
        0.9959622025489807,
        1.0
      ],
      "min": [
        -0.9962976574897766,
        -0.9966337084770203,
        -0.9964368939399719,
        -1.0
      ],
      "type": "VEC4"
    },
    {
      "bufferView": 1,
      "byteOffset": 313816,
      "componentType": 5126,
      "count": 667,
      "max": [
        0.8052161931991577,
        0.5860897898674011
      ],
      "min": [
        0.5419842004776001,
        0.008028924465179443
      ],
      "type": "VEC2"
    },
    {
      "bufferView": 0,
      "byteOffset": 647676,
      "componentType": 5125,
      "count": 3498,
      "type": "SCALAR"
    },
    {
      "bufferView": 2,
      "byteOffset": 796848,
      "componentType": 5126,
      "count": 429,
      "max": [
        0.3742048144340515,
        0.18142592906951904,
        0.43430161476135254
      ],
      "min": [
        0.30739957094192505,
        0.13824233412742615,
        0.3591778874397278
      ],
      "type": "VEC3"
    },
    {
      "bufferView": 2,
      "byteOffset": 801996,
      "componentType": 5126,
      "count": 429,
      "max": [
        0.9949485063552856,
        0.9953150749206543,
        0.9957506656646729
      ],
      "min": [
        -0.995910108089447,
        -0.9955627918243408,
        -0.995751142501831
      ],
      "type": "VEC3"
    },
    {
      "bufferView": 3,
      "byteOffset": 531232,
      "componentType": 5126,
      "count": 429,
      "max": [
        0.9660230875015259,
        0.9968452453613281,
        0.9993185997009277,
        1.0
      ],
      "min": [
        -0.9607687592506409,
        -0.9966539144515991,
        -0.999281108379364,
        -1.0
      ],
      "type": "VEC4"
    },
    {
      "bufferView": 1,
      "byteOffset": 319152,
      "componentType": 5126,
      "count": 429,
      "max": [
        0.8052161931991577,
        0.3814485967159271
      ],
      "min": [
        0.5419842004776001,
        0.008028924465179443
      ],
      "type": "VEC2"
    },
    {
      "bufferView": 0,
      "byteOffset": 661668,
      "componentType": 5125,
      "count": 2160,
      "type": "SCALAR"
    },
    {
      "bufferView": 2,
      "byteOffset": 807144,
      "componentType": 5126,
      "count": 709,
      "max": [
        -0.32901298999786377,
        0.1936497688293457,
        0.4116109609603882
      ],
      "min": [
        -0.7983075380325317,
        -0.3424197733402252,
        -0.11246578395366669
      ],
      "type": "VEC3"
    },
    {
      "bufferView": 2,
      "byteOffset": 815652,
      "componentType": 5126,
      "count": 709,
      "max": [
        0.9929201602935791,
        0.9879003167152405,
        0.9983479976654053
      ],
      "min": [
        -0.9989619255065918,
        -0.984854519367218,
        -0.9986971020698547
      ],
      "type": "VEC3"
    },
    {
      "bufferView": 3,
      "byteOffset": 538096,
      "componentType": 5126,
      "count": 709,
      "max": [
        0.9972307682037354,
        0.9994998574256897,
        0.955662727355957,
        1.0
      ],
      "min": [
        -0.990968644618988,
        -0.9997574090957642,
        -0.9521229267120361,
        1.0
      ],
      "type": "VEC4"
    },
    {
      "bufferView": 1,
      "byteOffset": 322584,
      "componentType": 5126,
      "count": 709,
      "max": [
        0.9668827652931213,
        0.20521539449691772
      ],
      "min": [
        0.4720779359340668,
        2.740780655585695e-05
      ],
      "type": "VEC2"
    },
    {
      "bufferView": 0,
      "byteOffset": 670308,
      "componentType": 5125,
      "count": 3279,
      "type": "SCALAR"
    },
    {
      "bufferView": 2,
      "byteOffset": 824160,
      "componentType": 5126,
      "count": 1014,
      "max": [
        0.9063562750816345,
        3.712203025817871,
        1.2700093984603882
      ],
      "min": [
        -0.9063562750816345,
        -2.3572378158569336,
        -2.0134849548339844
      ],
      "type": "VEC3"
    },
    {
      "bufferView": 2,
      "byteOffset": 836328,
      "componentType": 5126,
      "count": 1014,
      "max": [
        1.0,
        0.9997024536132813,
        0.999943196773529
      ],
      "min": [
        -1.0,
        -0.9986394047737122,
        -0.999870777130127
      ],
      "type": "VEC3"
    },
    {
      "bufferView": 3,
      "byteOffset": 549440,
      "componentType": 5126,
      "count": 1014,
      "max": [
        0.9969209432601929,
        0.9997653365135193,
        0.9999806880950928,
        1.0
      ],
      "min": [
        -0.9999902844429016,
        -0.9647993445396423,
        -0.9817153811454773,
        -1.0
      ],
      "type": "VEC4"
    },
    {
      "bufferView": 1,
      "byteOffset": 328256,
      "componentType": 5126,
      "count": 1014,
      "max": [
        0.9705902934074402,
        0.9974358677864075
      ],
      "min": [
        0.3951475918292999,
        0.5056960582733154
      ],
      "type": "VEC2"
    },
    {
      "bufferView": 0,
      "byteOffset": 683424,
      "componentType": 5125,
      "count": 5418,
      "type": "SCALAR"
    }
  ],
  "asset": {
    "extras": {
      "author": "Khadka Niyash (https://sketchfab.com/niyash)",
      "license": "CC-BY-4.0 (http://creativecommons.org/licenses/by/4.0/)",
      "source": "https://sketchfab.com/3d-models/fish-mouther-60004c231e38445b91153abb75a077db",
      "title": "Fish mouther"
    },
    "generator": "Sketchfab-13.79.0",
    "version": "2.0"
  },
  "bufferViews": [
    {
      "buffer": 0,
      "byteLength": 705096,
      "name": "floatBufferViews",
      "target": 34963
    },
    {
      "buffer": 0,
      "byteLength": 336368,
      "byteOffset": 705096,
      "byteStride": 8,
      "name": "floatBufferViews",
      "target": 34962
    },
    {
      "buffer": 0,
      "byteLength": 848496,
      "byteOffset": 1041464,
      "byteStride": 12,
      "name": "floatBufferViews",
      "target": 34962
    },
    {
      "buffer": 0,
      "byteLength": 565664,
      "byteOffset": 1889960,
      "byteStride": 16,
      "name": "floatBufferViews",
      "target": 34962
    }
  ],
  "buffers": [
    {
      "byteLength": 2455624,
      "uri": "scene.bin"
    }
  ],
  "images": [
    {
      "uri": "textures/lambert2_baseColor.png"
    },
    {
      "uri": "textures/lambert2_metallicRoughness.png"
    },
    {
      "uri": "textures/lambert2_normal.png"
    },
    {
      "uri": "textures/lambert3_baseColor.png"
    },
    {
      "uri": "textures/lambert3_metallicRoughness.png"
    },
    {
      "uri": "textures/lambert3_emissive.png"
    },
    {
      "uri": "textures/lambert3_normal.png"
    }
  ],
  "materials": [
    {
      "alphaMode": "BLEND",
      "doubleSided": true,
      "name": "lambert2",
      "normalTexture": {
        "index": 2
      },
      "pbrMetallicRoughness": {
        "baseColorTexture": {
          "index": 0
        },
        "metallicRoughnessTexture": {
          "index": 1
        }
      }
    },
    {
      "doubleSided": true,
      "emissiveFactor": [
        1.0,
        1.0,
        1.0
      ],
      "emissiveTexture": {
        "index": 5
      },
      "name": "lambert3",
      "normalTexture": {
        "index": 6
      },
      "pbrMetallicRoughness": {
        "baseColorTexture": {
          "index": 3
        },
        "metallicRoughnessTexture": {
          "index": 4
        }
      }
    }
  ],
  "meshes": [
    {
      "name": "Pant_LP_lambert2_0",
      "primitives": [
        {
          "attributes": {
            "NORMAL": 1,
            "POSITION": 0,
            "TANGENT": 2,
            "TEXCOORD_0": 3,
            "TEXCOORD_1": 4
          },
          "indices": 5,
          "material": 0,
          "mode": 4
        }
      ]
    },
    {
      "name": "tongue_LP_lambert2_0",
      "primitives": [
        {
          "attributes": {
            "NORMAL": 7,
            "POSITION": 6,
            "TANGENT": 8,
            "TEXCOORD_0": 9
          },
          "indices": 10,
          "material": 0,
          "mode": 4
        }
      ]
    },
    {
      "name": "lip_LP_lambert2_0",
      "primitives": [
        {
          "attributes": {
            "NORMAL": 12,
            "POSITION": 11,
            "TANGENT": 13,
            "TEXCOORD_0": 14
          },
          "indices": 15,
          "material": 0,
          "mode": 4
        }
      ]
    },
    {
      "name": "ornaments_LP_lambert2_0",
      "primitives": [
        {
          "attributes": {
            "NORMAL": 17,
            "POSITION": 16,
            "TANGENT": 18,
            "TEXCOORD_0": 19
          },
          "indices": 20,
          "material": 0,
          "mode": 4
        }
      ]
    },
    {
      "name": "bracelette_LP_lambert2_0",
      "primitives": [
        {
          "attributes": {
            "NORMAL": 22,
            "POSITION": 21,
            "TANGENT": 23,
            "TEXCOORD_0": 24
          },
          "indices": 25,
          "material": 0,
          "mode": 4
        }
      ]
    },
    {
      "name": "Rope_LP_lambert3_0",
      "primitives": [
        {
          "attributes": {
            "NORMAL": 27,
            "POSITION": 26,
            "TANGENT": 28,
            "TEXCOORD_0": 29
          },
          "indices": 30,
          "material": 1,
          "mode": 4
        }
      ]
    },
    {
      "name": "Shell_LP_lambert2_0",
      "primitives": [
        {
          "attributes": {
            "NORMAL": 32,
            "POSITION": 31,
            "TANGENT": 33,
            "TEXCOORD_0": 34
          },
          "indices": 35,
          "material": 0,
          "mode": 4
        }
      ]
    },
    {
      "name": "Spike_LP_lambert2_0",
      "primitives": [
        {
          "attributes": {
            "NORMAL": 37,
            "POSITION": 36,
            "TANGENT": 38,
            "TEXCOORD_0": 39
          },
          "indices": 40,
          "material": 0,
          "mode": 4
        }
      ]
    },
    {
      "name": "eye_LP_lambert2_0",
      "primitives": [
        {
          "attributes": {
            "NORMAL": 42,
            "POSITION": 41,
            "TANGENT": 43,
            "TEXCOORD_0": 44
          },
          "indices": 45,
          "material": 0,
          "mode": 4
        }
      ]
    },
    {
      "name": "teeth_LP_lambert3_0",
      "primitives": [
        {
          "attributes": {
            "NORMAL": 47,
            "POSITION": 46,
            "TANGENT": 48,
            "TEXCOORD_0": 49
          },
          "indices": 50,
          "material": 1,
          "mode": 4
        }
      ]
    },
    {
      "name": "Body_LP_lambert2_0",
      "primitives": [
        {
          "attributes": {
            "NORMAL": 52,
            "POSITION": 51,
            "TANGENT": 53,
            "TEXCOORD_0": 54
          },
          "indices": 55,
          "material": 0,
          "mode": 4
        }
      ]
    },
    {
      "name": "fin_LP_lambert2_0",
      "primitives": [
        {
          "attributes": {
            "NORMAL": 57,
            "POSITION": 56,
            "TANGENT": 58,
            "TEXCOORD_0": 59,
            "TEXCOORD_1": 60
          },
          "indices": 61,
          "material": 0,
          "mode": 4
        }
      ]
    },
    {
      "name": "leg_LP_lambert3_0",
      "primitives": [
        {
          "attributes": {
            "NORMAL": 63,
            "POSITION": 62,
            "TANGENT": 64,
            "TEXCOORD_0": 65
          },
          "indices": 66,
          "material": 1,
          "mode": 4
        }
      ]
    },
    {
      "name": "polySurface39_lambert3_0",
      "primitives": [
        {
          "attributes": {
            "NORMAL": 68,
            "POSITION": 67,
            "TANGENT": 69,
            "TEXCOORD_0": 70,
            "TEXCOORD_1": 71
          },
          "indices": 72,
          "material": 1,
          "mode": 4
        }
      ]
    },
    {
      "name": "polySurface40_lambert3_0",
      "primitives": [
        {
          "attributes": {
            "NORMAL": 74,
            "POSITION": 73,
            "TANGENT": 75,
            "TEXCOORD_0": 76
          },
          "indices": 77,
          "material": 1,
          "mode": 4
        }
      ]
    },
    {
      "name": "polySurface41_lambert3_0",
      "primitives": [
        {
          "attributes": {
            "NORMAL": 79,
            "POSITION": 78,
            "TANGENT": 80,
            "TEXCOORD_0": 81,
            "TEXCOORD_1": 82
          },
          "indices": 83,
          "material": 1,
          "mode": 4
        }
      ]
    },
    {
      "name": "polySurface42_lambert3_0",
      "primitives": [
        {
          "attributes": {
            "NORMAL": 85,
            "POSITION": 84,
            "TANGENT": 86,
            "TEXCOORD_0": 87,
            "TEXCOORD_1": 88
          },
          "indices": 89,
          "material": 1,
          "mode": 4
        }
      ]
    },
    {
      "name": "polySurface43_lambert3_0",
      "primitives": [
        {
          "attributes": {
            "NORMAL": 91,
            "POSITION": 90,
            "TANGENT": 92,
            "TEXCOORD_0": 93
          },
          "indices": 94,
          "material": 1,
          "mode": 4
        }
      ]
    },
    {
      "name": "polySurface44_lambert3_0",
      "primitives": [
        {
          "attributes": {
            "NORMAL": 96,
            "POSITION": 95,
            "TANGENT": 97,
            "TEXCOORD_0": 98,
            "TEXCOORD_1": 99
          },
          "indices": 100,
          "material": 1,
          "mode": 4
        }
      ]
    },
    {
      "name": "polySurface45_lambert3_0",
      "primitives": [
        {
          "attributes": {
            "NORMAL": 102,
            "POSITION": 101,
            "TANGENT": 103,
            "TEXCOORD_0": 104
          },
          "indices": 105,
          "material": 1,
          "mode": 4
        }
      ]
    },
    {
      "name": "fishs_LP_lambert3_0",
      "primitives": [
        {
          "attributes": {
            "NORMAL": 107,
            "POSITION": 106,
            "TANGENT": 108,
            "TEXCOORD_0": 109
          },
          "indices": 110,
          "material": 1,
          "mode": 4
        }
      ]
    },
    {
      "name": "pCylinder1_lambert3_0",
      "primitives": [
        {
          "attributes": {
            "NORMAL": 112,
            "POSITION": 111,
            "TANGENT": 113,
            "TEXCOORD_0": 114
          },
          "indices": 115,
          "material": 1,
          "mode": 4
        }
      ]
    },
    {
      "name": "Rope_LP1_lambert3_0",
      "primitives": [
        {
          "attributes": {
            "NORMAL": 117,
            "POSITION": 116,
            "TANGENT": 118,
            "TEXCOORD_0": 119
          },
          "indices": 120,
          "material": 1,
          "mode": 4
        }
      ]
    },
    {
      "name": "Rope_LP2_lambert3_0",
      "primitives": [
        {
          "attributes": {
            "NORMAL": 122,
            "POSITION": 121,
            "TANGENT": 123,
            "TEXCOORD_0": 124
          },
          "indices": 125,
          "material": 1,
          "mode": 4
        }
      ]
    },
    {
      "name": "fishs_LP1_lambert3_0",
      "primitives": [
        {
          "attributes": {
            "NORMAL": 127,
            "POSITION": 126,
            "TANGENT": 128,
            "TEXCOORD_0": 129
          },
          "indices": 130,
          "material": 1,
          "mode": 4
        }
      ]
    },
    {
      "name": "Rope_LP3_lambert3_0",
      "primitives": [
        {
          "attributes": {
            "NORMAL": 132,
            "POSITION": 131,
            "TANGENT": 133,
            "TEXCOORD_0": 134
          },
          "indices": 135,
          "material": 1,
          "mode": 4
        }
      ]
    },
    {
      "name": "Rope_LP4_lambert3_0",
      "primitives": [
        {
          "attributes": {
            "NORMAL": 137,
            "POSITION": 136,
            "TANGENT": 138,
            "TEXCOORD_0": 139
          },
          "indices": 140,
          "material": 1,
          "mode": 4
        }
      ]
    },
    {
      "name": "Shell_LP1_lambert2_0",
      "primitives": [
        {
          "attributes": {
            "NORMAL": 142,
            "POSITION": 141,
            "TANGENT": 143,
            "TEXCOORD_0": 144
          },
          "indices": 145,
          "material": 0,
          "mode": 4
        }
      ]
    },
    {
      "name": "fishs_LP2_lambert3_0",
      "primitives": [
        {
          "attributes": {
            "NORMAL": 147,
            "POSITION": 146,
            "TANGENT": 148,
            "TEXCOORD_0": 149
          },
          "indices": 150,
          "material": 1,
          "mode": 4
        }
      ]
    }
  ],
  "nodes": [
    {
      "children": [
        1
      ],
      "matrix": [
        1.0,
        0.0,
        0.0,
        0.0,
        0.0,
        2.220446049250313e-16,
        -1.0,
        0.0,
        0.0,
        1.0,
        2.220446049250313e-16,
        0.0,
        0.0,
        0.0,
        0.0,
        1.0
      ],
      "name": "Sketchfab_model"
    },
    {
      "children": [
        2
      ],
      "matrix": [
        0.009999999776482582,
        0.0,
        0.0,
        0.0,
        0.0,
        0.0,
        0.009999999776482582,
        0.0,
        0.0,
        -0.009999999776482582,
        0.0,
        0.0,
        0.0,
        0.0,
        0.0,
        1.0
      ],
      "name": "85f1117bdb054a40922f49bd612e4bfb.fbx"
    },
    {
      "children": [
        3,
        6,
        8,
        12,
        14,
        16,
        18,
        20,
        22,
        24,
        26,
        28,
        30,
        32,
        47,
        49,
        51,
        53,
        55,
        57,
        59,
        61,
        63
      ],
      "name": "RootNode"
    },
    {
      "children": [
        4
      ],
      "name": "Body_"
    },
    {
      "children": [
        5
      ],
      "name": "Pant_LP"
    },
    {
      "mesh": 0,
      "name": "Pant_LP_lambert2_0"
    },
    {
      "children": [
        7
      ],
      "matrix": [
        -1.0,
        1.224646799147353e-16,
        -1.232595164407831e-32,
        0.0,
        -1.232595164407831e-32,
        -2.220446049250313e-16,
        -1.0,
        0.0,
        -1.224646799147353e-16,
        -1.0,
        2.220446049250313e-16,
        0.0,
        6.463591245193919e-20,
        0.0,
        0.0029656498227268457,
        1.0
      ],
      "name": "tongue_LP"
    },
    {
      "mesh": 1,
      "name": "tongue_LP_lambert2_0"
    },
    {
      "children": [
        9
      ],
      "matrix": [
        -1.0,
        1.224646799147353e-16,
        -1.232595164407831e-32,
        0.0,
        -1.232595164407831e-32,
        -2.220446049250313e-16,
        -1.0,
        0.0,
        -1.224646799147353e-16,
        -1.0,
        2.220446049250313e-16,
        0.0,
        6.463591245193919e-20,
        0.0,
        0.0029656498227268457,
        1.0
      ],
      "name": "mouth_LP"
    },
    {
      "children": [
        10
      ],
      "name": "polySurface8"
    },
    {
      "children": [
        11
      ],
      "name": "lip_LP"
    },
    {
      "mesh": 2,
      "name": "lip_LP_lambert2_0"
    },
    {
      "children": [
        13
      ],
      "name": "ornaments_LP"
    },
    {
      "mesh": 3,
      "name": "ornaments_LP_lambert2_0"
    },
    {
      "children": [
        15
      ],
      "name": "bracelette_LP"
    },
    {
      "mesh": 4,
      "name": "bracelette_LP_lambert2_0"
    },
    {
      "children": [
        17
      ],
      "name": "Rope_LP"
    },
    {
      "mesh": 5,
      "name": "Rope_LP_lambert3_0"
    },
    {
      "children": [
        19
      ],
      "name": "Shell_LP"
    },
    {
      "mesh": 6,
      "name": "Shell_LP_lambert2_0"
    },
    {
      "children": [
        21
      ],
      "name": "Spike_LP"
    },
    {
      "mesh": 7,
      "name": "Spike_LP_lambert2_0"
    },
    {
      "children": [
        23
      ],
      "name": "eye_LP"
    },
    {
      "mesh": 8,
      "name": "eye_LP_lambert2_0"
    },
    {
      "children": [
        25
      ],
      "name": "teeth_LP"
    },
    {
      "mesh": 9,
      "name": "teeth_LP_lambert3_0"
    },
    {
      "children": [
        27
      ],
      "name": "Body_LP"
    },
    {
      "mesh": 10,
      "name": "Body_LP_lambert2_0"
    },
    {
      "children": [
        29
      ],
      "name": "fin_LP"
    },
    {
      "mesh": 11,
      "name": "fin_LP_lambert2_0"
    },
    {
      "children": [
        31
      ],
      "name": "leg_LP"
    },
    {
      "mesh": 12,
      "name": "leg_LP_lambert3_0"
    },
    {
      "children": [
        33,
        35,
        37,
        39,
        41,
        43,
        45
      ],
      "name": "extras_LP"
    },
    {
      "children": [
        34
      ],
      "name": "polySurface39"
    },
    {
      "mesh": 13,
      "name": "polySurface39_lambert3_0"
    },
    {
      "children": [
        36
      ],
      "name": "polySurface40"
    },
    {
      "mesh": 14,
      "name": "polySurface40_lambert3_0"
    },
    {
      "children": [
        38
      ],
      "name": "polySurface41"
    },
    {
      "mesh": 15,
      "name": "polySurface41_lambert3_0"
    },
    {
      "children": [
        40
      ],
      "matrix": [
        0.774213433265686,
        0.0,
        0.0,
        0.0,
        0.0,
        0.76124923946604,
        0.14108875100948606,
        0.0,
        0.0,
        -0.14108875100948606,
        0.76124923946604,
        0.0,
        -0.3233923017978668,
        0.0,
        -0.050007399171590805,
        1.0
      ],
      "name": "polySurface42"
    },
    {
      "mesh": 16,
      "name": "polySurface42_lambert3_0"
    },
    {
      "children": [
        42
      ],
      "matrix": [
        0.774213433265686,
        0.0,
        0.0,
        0.0,
        0.0,
        0.76124923946604,
        0.14108875100948606,
        0.0,
        0.0,
        -0.14108875100948606,
        0.76124923946604,
        0.0,
        -0.3233923017978668,
        0.0,
        -0.050007399171590805,
        1.0
      ],
      "name": "polySurface43"
    },
    {
      "mesh": 17,
      "name": "polySurface43_lambert3_0"
    },
    {
      "children": [
        44
      ],
      "matrix": [
        0.774213433265686,
        0.0,
        0.0,
        0.0,
        0.0,
        0.76124923946604,
        0.14108875100948606,
        0.0,
        0.0,
        -0.14108875100948606,
        0.76124923946604,
        0.0,
        -0.1312040537595749,
        -0.12132961302995682,
        -0.1372290551662445,
        1.0
      ],
      "name": "polySurface44"
    },
    {
      "mesh": 18,
      "name": "polySurface44_lambert3_0"
    },
    {
      "children": [
        46
      ],
      "matrix": [
        0.774213433265686,
        0.0,
        0.0,
        0.0,
        0.0,
        0.76124923946604,
        0.14108875100948606,
        0.0,
        0.0,
        -0.14108875100948606,
        0.76124923946604,
        0.0,
        -0.1312040537595749,
        -0.12132961302995682,
        -0.1372290551662445,
        1.0
      ],
      "name": "polySurface45"
    },
    {
      "mesh": 19,
      "name": "polySurface45_lambert3_0"
    },
    {
      "children": [
        48
      ],
      "matrix": [
        0.04687003418803215,
        0.0,
        0.0,
        0.0,
        0.0,
        0.04687003418803215,
        0.0,
        0.0,
        0.0,
        0.0,
        0.04687003418803215,
        0.0,
        0.34878748655319214,
        -0.017085276544094086,
        -1.1307134628295898,
        1.0
      ],
      "name": "fishs_LP"
    },
    {
      "mesh": 20,
      "name": "fishs_LP_lambert3_0"
    },
    {
      "children": [
        50
      ],
      "matrix": [
        1.0904505252838135,
        0.0,
        0.0,
        0.0,
        0.0,
        0.1127050369977951,
        0.0,
        0.0,
        0.0,
        0.0,
        1.0904505252838135,
        0.0,
        0.0,
        -1.0607792139053345,
        0.16607525944709778,
        1.0
      ],
      "name": "pCylinder1"
    },
    {
      "mesh": 21,
      "name": "pCylinder1_lambert3_0"
    },
    {
      "children": [
        52
      ],
      "matrix": [
        1.0,
        0.0,
        0.0,
        0.0,
        0.0,
        1.0,
        0.0,
        0.0,
        0.0,
        0.0,
        1.0,
        0.0,
        0.0,
        0.0,
        -1.5679501295089722,
        1.0
      ],
      "name": "Rope_LP1"
    },
    {
      "mesh": 22,
      "name": "Rope_LP1_lambert3_0"
    },
    {
      "children": [
        54
      ],
      "matrix": [
        1.0,
        0.0,
        0.0,
        0.0,
        0.0,
        1.0,
        0.0,
        0.0,
        0.0,
        0.0,
        1.0,
        0.0,
        0.0,
        -0.07365605235099792,
        -1.5358332395553589,
        1.0
      ],
      "name": "Rope_LP2"
    },
    {
      "mesh": 23,
      "name": "Rope_LP2_lambert3_0"
    },
    {
      "children": [
        56
      ],
      "matrix": [
        0.04687003418803215,
        0.0,
        0.0,
        0.0,
        0.0,
        0.04687003418803215,
        0.0,
        0.0,
        0.0,
        0.0,
        0.04687003418803215,
        0.0,
        0.3376912474632263,
        -0.03919735923409462,
        -0.9493218660354614,
        1.0
      ],
      "name": "fishs_LP1"
    },
    {
      "mesh": 24,
      "name": "fishs_LP1_lambert3_0"
    },
    {
      "children": [
        58
      ],
      "matrix": [
        1.0,
        0.0,
        0.0,
        0.0,
        0.0,
        1.0,
        0.0,
        0.0,
        0.0,
        0.0,
        1.0,
        0.0,
        -0.01109624095261097,
        -0.022112084552645683,
        -1.3865585327148438,
        1.0
      ],
      "name": "Rope_LP3"
    },
    {
      "mesh": 25,
      "name": "Rope_LP3_lambert3_0"
    },
    {
      "children": [
        60
      ],
      "matrix": [
        1.0,
        0.0,
        0.0,
        0.0,
        0.0,
        1.0,
        0.0,
        0.0,
        0.0,
        0.0,
        1.0,
        0.0,
        -0.01109624095261097,
        -0.09576813131570816,
        -1.3544416427612305,
        1.0
      ],
      "name": "Rope_LP4"
    },
    {
      "mesh": 26,
      "name": "Rope_LP4_lambert3_0"
    },
    {
      "children": [
        62
      ],
      "matrix": [
        0.7198533801140459,
        -0.6917667774562375,
        0.0571824863589842,
        0.0,
        0.6934830302054571,
        0.7202872734517414,
        -0.01635636024650525,
        0.0,
        -0.029873030570065885,
        0.05142926512472039,
        0.9982297494731817,
        0.0,
        0.14857041835784912,
        -1.1497591733932495,
        0.3989695906639099,
        1.0
      ],
      "name": "Shell_LP1"
    },
    {
      "mesh": 27,
      "name": "Shell_LP1_lambert2_0"
    },
    {
      "children": [
        64
      ],
      "matrix": [
        0.006221151793278225,
        0.06108944269268741,
        0.00806831463867166,
        0.0,
        -0.04243246118144487,
        0.010127390975984925,
        -0.04396183150588093,
        0.0,
        -0.04468225540073953,
        -0.0011119274990535322,
        0.04287167023556095,
        0.0,
        0.584166407585144,
        -0.8249584436416626,
        0.01823837123811245,
        1.0
      ],
      "name": "fishs_LP2"
    },
    {
      "mesh": 28,
      "name": "fishs_LP2_lambert3_0"
    }
  ],
  "samplers": [
    {
      "magFilter": 9729,
      "minFilter": 9987,
      "wrapS": 10497,
      "wrapT": 10497
    }
  ],
  "scene": 0,
  "scenes": [
    {
      "name": "Sketchfab_Scene",
      "nodes": [
        0
      ]
    }
  ],
  "textures": [
    {
      "sampler": 0,
      "source": 0
    },
    {
      "sampler": 0,
      "source": 1
    },
    {
      "sampler": 0,
      "source": 2
    },
    {
      "sampler": 0,
      "source": 3
    },
    {
      "sampler": 0,
      "source": 4
    },
    {
      "sampler": 0,
      "source": 5
    },
    {
      "sampler": 0,
      "source": 6
    }
  ]
}
